# xmcd
#
# Track frame offsets: 
#        150
#        22986
#        47905
#        60699
#        78481
#        88402
#
# Disc length: 1369 seconds
#
# Revision: 0
# Processed by: cddbd v1.5.1PL2 Copyright (c) Steve Scherf et al.
# Submitted via: ExactAudioCopy v0.95b3
#
DISCID=49055706
DTITLE=Jeremy Spencer - Still Alive and Well
DYEAR=1998
DGENRE=blues/rock
TTITLE0=Its like heaven
TTITLE1=Twenty flight rock
TTITLE2=Love me
TTITLE3=Blue suede shoes
TTITLE4=All shook up
TTITLE5=Red sky blues
EXTD=
EXTT0=
EXTT1=
EXTT2=
EXTT3=
EXTT4=
EXTT5=
PLAYORDER=
